<?xml version="1.0" encoding="UTF-8" standalone="no"?>
<svg
   version="1.1"
   viewBox="0 0 2048 792"
   width="447"
   height="173"
   id="svg56"
   sodipodi:docname="3BbQSws35aPBmIg3u96SAVZRyKf.svg"
   inkscape:version="1.4.2 (f4327f4, 2025-05-13)"
   xml:space="preserve"
   xmlns:inkscape="http://www.inkscape.org/namespaces/inkscape"
   xmlns:sodipodi="http://sodipodi.sourceforge.net/DTD/sodipodi-0.dtd"
   xmlns="http://www.w3.org/2000/svg"
   xmlns:svg="http://www.w3.org/2000/svg"><defs
     id="defs56" /><sodipodi:namedview
     id="namedview56"
     pagecolor="#000000"
     bordercolor="#000000"
     borderopacity="0.25"
     inkscape:showpageshadow="2"
     inkscape:pageopacity="0.0"
     inkscape:pagecheckerboard="true"
     inkscape:deskcolor="#263526"
     inkscape:zoom="1.6864162"
     inkscape:cx="-30.538132"
     inkscape:cy="102.28792"
     inkscape:window-width="3440"
     inkscape:window-height="1369"
     inkscape:window-x="-8"
     inkscape:window-y="-8"
     inkscape:window-maximized="1"
     inkscape:current-layer="svg56" /><path
     id="path18"
     style="fill:#000000;fill-opacity:1;stroke-width:0.878982"
     d="m 1526.8355,53.638993 -0.8674,0.876631 -3.5253,8.785438 -7.032,6.155423 -3.5065,6.155414 -3.5254,4.392665 -3.5063,5.278772 -1.7629,20.210124 -0.886,0.87661 h -7.9094 l -24.6022,0.88611 -2.64,1.7533 -9.6712,1.76281 -8.785,-2.63942 -0.8767,3.51602 1.7533,2.63941 6.1551,7.90865 52.7313,0.87673 2.6393,0.8766 8.7852,7.03205 9.672,6.15544 1.7627,-3.51605 3.516,-2.63939 6.1458,-7.03205 -0.8672,-6.14597 v -7.03202 l 0.8672,-4.40222 -2.6299,-2.62996 -0.8861,-6.155367 3.516,-4.392687 V 84.39726 l -0.8672,-0.876661 -7.032,0.876661 v -4.392696 l 2.63,-3.51603 5.2692,-2.639391 v -5.2693 l -1.7533,-7.032057 -4.3925,-1.762745 -4.4021,-4.392771 z m -560.78398,4.383289 -1.76271,2.648768 v 13.178093 l 1.76271,0.886122 4.40209,1.753269 v 2.629915 l -5.27881,6.164887 v 32.520974 l 1.76273,4.39264 2.63009,6.14607 h 13.18744 l 3.51604,-0.87672 7.9087,-4.39262 7.9182,-1.76281 h 57.1235 l 0.8766,-0.8766 v -7.90876 l -1.7531,-0.87662 -2.6393,0.87662 -1.7533,4.39274 -1.7626,0.88606 h -13.1872 l 2.6394,-9.67144 -3.5168,-1.7628 -27.2416,-1.75321 h -12.30168 v -4.40216 l -1.76279,-17.570744 -1.75322,-2.639392 -6.16491,0.876656 v -9.661986 l -3.51603,-5.278782 -5.26931,-6.155411 -7.03204,-1.762759 z m 475.53238,58.019258 v 2.63938 l 1.7533,3.51603 0.886,5.26935 -1.7627,2.6394 -1.7534,7.03207 h -11.4345 l -3.5162,-7.91812 h -18.4561 l -3.5166,4.40207 -1.7534,4.39275 h -29.8911 v -7.90877 l -0.8767,-0.88605 h -19.3422 l -6.146,7.91812 -29.005,0.8767 v -7.03214 l -1.7626,-1.76268 h -19.3338 l -0.886,0.88605 -1.7533,7.90877 h -31.6444 l -0.8765,-7.03214 -6.1553,-1.76268 h -14.9412 v 8.79482 h -35.1602 v -7.90877 l -0.8861,-0.88605 h -19.3337 l 1.7626,9.6809 h -36.0463 v -5.27883 l -1.7532,-4.40207 h -20.2105 v 9.6809 h -32.5303 l -0.8766,-7.91822 -0.8862,-1.76268 h -21.9628 l -0.8861,7.03203 -2.6305,0.88609 -6.1554,-0.88609 -1.7628,-10.54806 -29.8815,-0.86728 h -32.52079 l -12.31084,6.14599 -14.06414,0.88615 -2.63001,1.75324 -2.6393,11.42481 0.87668,1.75334 h 562.5472 l 0.8766,-5.26937 -1.7539,-3.51603 h -4.3926 l -4.4021,-1.76279 -8.7852,-7.03203 -5.2785,-3.51603 -56.2472,-0.86728 v -1.76266 l -5.2693,-7.03214 z m -532.66559,31.64439 -4.40217,5.27871 H 465.03059 l -0.87663,0.86725 -2.6394,21.9823 -1.75332,4.39266 v 31.64437 l 0.87669,1.75324 v 23.73562 l -0.87669,0.87665 v 67.68131 h 1.75332 l 0.87663,-1.76269 5.27879,-7.03207 1.75327,-3.50664 123.0613,-0.87663 v -48.34788 l -119.5452,-0.87662 -0.87671,-1.76271 422.79149,0.88608 3.51603,3.51603 v 58.8865 h -434.2162 l -0.8767,0.87663 v 50.11063 l 0.8767,0.87663 h 6.15543 l 0.87663,-0.87663 1.75333,-12.31086 1.76268,-3.51601 7.03206,-6.15543 5.26936,-1.76276 h 127.45393 l 21.09624,0.88608 12.30139,6.14598 24.61225,14.95022 H 888.6987 l 0.88607,-12.30139 1.75334,-2.64883 9.66199,-8.78538 1.76278,-4.39265 h 1.75326 l 4.40217,-3.51604 11.42469,-11.43422 h 175.8014 l 0.8767,0.88609 14.0647,10.54813 3.5159,0.87663 v -11.42476 l -0.8766,-1.75327 -4.4019,-0.88607 -7.9086,-0.8767 -0.8766,-2.63939 -0.8774,-37.79028 H 951.98736 v -12.31084 l -0.87669,-8.78539 -4.4021,-9.67145 -4.38326,-10.54807 -0.88608,-60.64926 -0.87663,-11.42478 -1.75332,-1.75333 h -10.54807 l -1.76278,-0.88609 -3.51604,-4.39262 z m 203.04419,6.14596 -1.7532,1.76269 v 10.54817 l 50.0911,0.88606 30.7677,0.86718 2.6399,4.40218 4.3928,3.51602 45.7078,0.87663 4.3928,4.40217 4.3926,2.62994 124.8246,0.87665 -14.9507,14.94079 -110.7505,0.88607 -2.6395,3.51601 -5.2693,4.39274 -7.9083,0.88607 -85.2617,0.8672 -16.703,0.88605 v 0.87671 l 29.8814,51.85444 h 117.7915 l 6.1465,-9.66206 25.4977,-43.06909 4.3933,-1.75325 87.0143,-0.88607 2.64,-1.76278 9.6616,-9.66199 13.1967,-11.43423 7.8998,-1.75326 87.0237,-0.87669 0.8767,-1.75325 v -27.2611 h -62.4027 l -0.8861,0.88608 v 6.14596 h -10.5478 v -7.03204 h -145.0248 v 7.91812 l -8.7945,-0.88608 -2.63,-7.03204 h -152.0662 v 7.03204 h -8.785 l -2.649,-7.03204 z m 417.5129,0 -0.8773,0.88608 -0.8766,28.12827 -0.886,6.14597 0.886,1.76279 21.0963,0.8766 3.516,0.87673 5.2694,3.51602 7.9092,7.9181 5.2784,7.90877 v 97.56291 l -28.1283,0.88607 -0.8765,0.86718 v 43.95515 l -0.8861,3.51609 -7.0319,5.27873 -10.5486,6.15542 -30.7583,10.54815 0.8766,1.75327 4.4022,4.39269 2.6305,14.06413 -2.6305,-0.87663 -16.7033,-0.87666 -16.7039,-1.76276 h -19.3424 l -3.5064,3.51605 -8.7954,11.42476 -4.3926,8.78538 0.8767,4.40209 4.4019,1.76276 h 8.786 l 11.4245,-5.27878 21.9731,-10.54808 13.1871,-5.26933 14.0645,-4.40211 18.4564,-4.39274 22.8496,-3.516 1.7627,-1.75333 4.3927,-7.9087 9.6719,-7.03211 88.7676,-0.88605 5.2792,-0.87664 4.4022,-8.78538 4.383,-0.88606 14.9499,-0.87665 5.2794,-0.87669 4.3925,-1.76271 v -6.14597 l -3.5254,-19.34296 -2.6305,-3.51602 -11.4341,-3.51604 -0.8671,-5.26935 5.2693,-0.88607 79.1063,-0.87663 0.8766,-0.87668 0.8862,-6.15537 2.6392,-3.51608 5.2693,-0.88609 6.1552,2.64884 1.7534,8.78538 94.9328,0.87663 h 25.489 l 0.8766,-0.87663 0.8861,-7.03205 2.6298,-3.51608 h 7.9189 l 4.3923,4.39272 v 6.15541 l 7.9088,0.87663 h 26.3655 l 1.7533,-8.78537 3.5255,-3.52548 h 5.2691 l 4.4021,1.76277 3.5166,10.54808 24.6118,-0.87663 v -52.74052 l 0.8672,-21.09622 1.7626,-0.8767 10.5486,-7.90868 7.9181,-2.6394 2.6298,-3.51603 -0.8767,-2.63939 h -9.6712 l -6.146,2.63939 -6.1652,10.54808 -3.5067,1.76278 -0.8766,-11.43421 -0.8861,-2.62998 -57.1331,-0.88606 -147.6731,-0.86717 -57.1332,-0.88615 -4.3832,-3.51603 -4.4026,-4.39265 -10.548,-6.15543 -7.032,-3.51601 h -12.3017 l -3.5254,-1.76276 h -6.146 l -0.8861,0.88605 -4.383,0.87671 -18.4665,-7.90877 -6.1458,-0.88606 -86.1478,-49.2245 z m 479.9243,79.99216 v 71.19736 l -0.8767,17.58019 h 19.3432 v -17.58019 l -0.8861,-58.00988 -0.8766,-14.0641 -0.8768,-0.87671 h -15.827 z m -1559.01764,-78.40857 -16.07199,0.0283 -0.10368,40.87269 -26.96883,-0.0378 30.15497,32.15336 v 54.18277 c -4.20441,6.07621 -8.30428,6.07621 -12.3014,0 v -53.08936 l -30.56977,-32.45498 -21.08676,1.3103 15.84575,14.7617 -5.4956,6.99436 -37.57347,1.74388 -16.40188,-20.7757 -20.09706,1.24427 11.01944,12.98013 -3.29924,8.51198 -40.64646,2.62997 -18.14578,-20.93601 -20.43637,1.27259 11.99977,13.97928 -1.31968,6.33452 -47.23555,3.05419 -14.01703,-20.2196 -125.351811,7.80503 15.939985,8.64397 0.311068,54.06969 -13.517416,9.57717 68.209224,1.38569 c 4.14277,3.65605 3.93512,7.31624 -0.62214,10.97228 L 42.578512,298.1117 v 27.97748 l 111.391368,9.83166 1.6308,-0.12251 C 148.20412,325.7971 141.6025,316.69114 141.6025,316.69114 l 0.0851,-18.13631 28.21307,-18.92814 21.73727,0.46186 17.32562,23.39629 6.8247,-4.93001 28.22255,-18.92814 21.72779,0.46186 17.16541,23.17944 6.52303,-4.71316 28.22253,-18.92814 21.72779,0.46186 18.20236,24.56513 4.85456,-3.5066 28.22254,-18.91875 21.7278,0.45249 24.00892,32.41727 13.96991,-1.02747 z m -26.16768,0.0946 -16.97687,1.28204 v 26.63887 0.0661 c 0.0195,2.01788 3.8234,3.65173 8.50255,3.64799 4.68104,-0.003 8.47424,-1.64818 8.47432,-3.66689 l -0.01,-0.0189 c 8e-5,-0.01 8e-5,-0.0186 0,-0.0283 h 0.01 z m 532.1751,0.96153 0.86729,6.15543 0.886,8.78537 -4.40209,4.40209 -0.86722,3.51602 h 27.2422 l 0.88611,-0.88606 v -6.14598 l 17.58015,1.76268 v 2.62997 l 0.86723,2.63939 h 68.56715 l 1.7539,-6.15543 h 14.9405 v 3.51604 l 1.7626,2.63939 9.6711,0.87663 0.8767,25.48895 h 135.3633 l 4.3925,-2.6394 4.4019,-4.39272 1.7532,-8.78538 -0.8861,-7.03205 -4.3829,-2.6394 -52.7408,-0.87663 h -29.005 v -5.2694 l -0.8861,-1.76268 -55.3705,-0.88607 v -11.41535 l -0.886,-3.52547 z m -559.37016,1.09333 -354.44085,26.74262 v 26.79916 L 397.01932,182.9971 Z m 80.32212,5.06203 h 82.6221 l 6.15543,12.3014 10.5481,20.22895 -0.87667,4.38329 -6.15541,7.91812 -5.27877,1.76277 h -65.91857 l -1.76277,-0.88607 -8.78537,-7.90875 -10.54807,-9.67145 -7.91819,-9.662 0.88614,-7.03214 4.39264,-10.55751 z m 112.5037,0 h 81.7549 l 2.62995,4.40208 11.43418,21.09622 3.51604,8.78539 -6.16484,9.66199 -4.3833,2.64885 h -67.69068 l -5.27882,-3.52547 -14.93137,-14.06419 -7.91816,-9.67144 -0.87664,-5.26934 3.51605,-8.79483 z m 108.9971,0 h 81.74546 l 0.87664,0.87661 14.9408,29.00499 0.88607,6.15534 -6.15542,8.79482 -3.51603,1.76277 h -67.68132 l -1.7627,-0.88607 -14.06418,-12.31083 -7.89929,-7.89933 -5.27874,-7.03204 v -5.2788 l 3.51603,-8.78538 z m 105.4811,0 h 81.74541 l 1.75332,3.51602 5.27873,9.67144 8.78539,17.5802 0.87669,4.39264 -5.27881,7.90876 -5.26934,3.52547 h -67.68132 l -7.03204,-5.27881 -19.33347,-19.34287 -2.63941,-5.26937 0.87665,-5.26936 3.51602,-7.03204 z m -321.71256,7.03204 -2.6394,3.51601 -1.75332,5.26937 4.39272,5.27878 7.03206,6.15536 10.54808,10.54815 h 61.53535 l 2.62995,-2.63941 0.88614,-6.15543 -1.76277,-2.63939 -5.26935,-4.39263 -67.69078,-0.87665 v -2.62994 l 4.40216,-7.91821 -1.76276,-3.51601 z m 111.62705,0 -2.62996,3.51601 -0.87667,5.26937 4.3927,5.27878 7.03209,6.15536 10.53866,10.54815 h 60.65867 l 3.51604,-2.63941 0.87665,-5.2787 -1.76273,-3.51612 -4.39269,-4.39263 -68.55798,-0.87665 v -2.62994 l 2.62996,-6.16486 0.88609,-5.26936 z m 108.9971,0 -2.63939,3.51601 -0.87662,5.26937 5.27874,6.15543 7.03204,6.15541 9.66205,9.67145 h 61.53534 l 2.62997,-2.63941 v -7.03204 l -0.87669,-1.76278 -5.26928,-4.39263 -67.68139,-0.87665 v -3.51609 l 3.51608,-7.90867 -0.88612,-2.6394 z m 107.23438,0 -5.27879,4.40208 v 5.26936 l 3.51602,4.39272 9.68089,8.7854 9.662,7.91811 h 58.89602 l 3.51603,-1.76277 0.87663,-6.15534 -1.76271,-3.51612 -4.39272,-4.39263 -67.68131,-0.87665 v -4.39272 l 2.6394,-5.26936 0.87662,-4.40208 z M 2.5635391,184.30735 V 210.8049 H 32.247174 v -26.49755 z m 950.3004109,2.05494 -4.3926,0.87672 v 7.03204 l 0.87663,3.51601 3.51597,6.15542 0.87673,19.34291 1.76269,14.93137 0.8766,22.85897 0.8768,0.87665 149.43653,0.87662 v 39.55305 l 0.8671,0.88607 h 455.3219 l 0.8767,-0.88607 v -90.5308 l -2.6393,-5.27881 -10.5486,-10.54805 -4.3927,-1.75334 h -20.2196 v -4.39273 h -90.5309 l -6.1553,4.39273 -9.6618,8.78537 -9.6807,7.91812 -5.2698,3.51603 -85.261,0.87669 -30.7582,51.85446 -4.4021,5.27873 -11.4252,0.87668 h -113.3805 v -1.75331 l -27.2606,-52.74053 -4.3839,-7.03204 h -34.2931 v -25.48896 z m 278.63445,26.36558 h 43.078 l 2.6299,0.87662 0.8861,1.76277 v 21.97285 l -0.8861,5.2788 -1.7532,3.51604 -4.3926,2.62994 h -101.9649 v -0.8767 l 9.6713,-4.39265 6.1459,-2.63939 h 74.7139 l -2.63,-6.15542 -0.886,-7.90869 4.402,-5.26935 0.8765,-4.40209 -54.5033,-1.75334 -14.0639,-0.87669 v -0.88608 z m 293.5837,0 h 14.941 l 2.6394,0.87662 5.2691,3.51611 6.1554,7.03205 3.5162,9.67143 v 7.90876 l -0.8768,3.51602 -4.3926,8.79477 -6.1554,5.26933 -8.7945,3.51604 h -10.5484 l -2.63,-0.87662 -7.9181,-4.39267 -6.1457,-7.03212 -3.516,-8.79475 v -7.03211 l 0.8766,-4.38321 2.6394,-6.16487 6.1457,-7.03205 z M 522.16382,217.1206 h 91.41689 l 2.62996,0.88606 1.76273,4.39266 -0.8766,7.9182 -3.51609,4.38321 -4.40208,1.76277 h -53.60779 l -34.28368,-0.87671 -0.87666,-1.76271 v -15.81742 z m 108.11099,0 h 93.17965 l 2.6394,1.76269 v 10.54808 l -2.6394,4.39271 -4.39265,2.63942 h -77.35276 l -11.43424,-0.87671 -0.86722,-0.88606 v -16.69407 z m 108.12046,0 h 91.41694 l 3.51602,0.88606 1.75334,1.75326 v 9.67145 l -3.51604,4.39271 -4.39272,2.63942 h -75.59006 l -11.43416,-0.87671 -1.75332,-0.88606 -0.87664,-2.62998 v -14.06409 z m -735.2095943,0.0189 3.421769,2.93159 v 66.57846 l -3.421769,3.40292 H 32.218888 v -72.913 z m 475.9090843,0.86728 h 26.37495 l 1.75332,1.75327 0.87662,7.90874 -1.7533,7.03207 -5.27873,1.76277 h -19.33353 l -2.63933,-1.76277 z m 373.56693,0 h 27.25163 l 0.8767,1.75327 0.87664,7.90874 -0.87664,7.03207 -6.1554,1.76277 h -19.33355 l -2.63938,-1.76277 -0.87663,-7.90869 z M 42.57847,218.9871 v 70.13216 l 23.40567,-13.43262 v -43.25762 z m 1484.25703,0.77292 -4.3927,1.76277 -6.1554,6.14597 -2.6299,7.03207 1.7533,8.79481 5.2786,6.1554 7.0321,2.62997 h 6.1465 l 2.6393,-0.87663 7.0318,-5.26933 3.5254,-7.03206 v -7.03215 l -0.8861,-2.63938 -4.3924,-5.27872 -7.0319,-4.39273 z m 50.9873,8.79482 h 2.6395 l 3.5158,2.62995 14.9411,8.79482 21.9724,13.18749 22.8497,13.17809 7.032,5.27873 v 48.33842 h -72.074 z m 455.3124,2.62995 -0.8765,0.88606 0.8765,90.53088 0.8768,0.87663 8.7851,-0.87663 1.7627,-5.26934 0.8767,-46.59455 v -22.84956 l -1.7533,-14.94073 -1.7626,-1.76277 z m -298.8536,7.03207 7.9086,0.88613 3.5165,3.51602 v 7.90868 l -6.1465,5.26936 h -5.2786 l -2.6393,-1.75332 -3.516,-5.27874 v -5.26935 l 0.8861,-1.7627 z m -1126.85631,6.1554 -0.87663,2.6394 v 40.42969 l 0.87663,5.27879 h 58.00987 v -47.47118 l -0.87661,-0.8767 z m 72.07402,0 v 48.34787 l 2.64885,0.87663 55.37047,-0.87663 v -48.34788 z m 72.96012,0 -0.87668,20.21959 v 22.8495 l 0.87668,5.27879 1.75328,0.87663 56.2566,-0.87663 v -47.47118 l -0.8767,-0.8767 z m 72.96005,0 -0.88607,7.03212 v 41.31575 l 34.28369,0.87663 h 30.7583 l 1.76271,-0.87663 v -16.70352 l -0.87663,-30.76767 -3.51603,-0.8767 z m 766.46782,6.15543 v 63.28866 h 53.6166 l 0.8767,-0.88607 v -21.97286 l -0.8767,-8.78538 -0.8766,-0.88613 -47.4706,-29.00491 z m -1087.30368,0.87668 h 5.27881 l 5.26929,1.76272 6.15544,6.14596 2.63937,7.90876 -1.76271,7.91812 -5.26934,6.14598 -6.15544,3.51609 h -7.90873 l -3.51602,-1.76276 -5.27872,-4.38328 -3.51611,-7.03205 v -7.03207 l 3.51611,-7.03204 4.40208,-3.51608 z m 52.74054,0 h 7.9182 l 4.39263,1.76272 6.15541,6.14596 2.62997,5.27879 v 7.03207 l -2.62997,5.26933 -4.40208,4.39267 -7.0321,3.51609 h -7.03206 l -5.26934,-2.62996 -4.39268,-5.2788 -2.63939,-7.03204 0.87665,-7.03211 5.27876,-7.90868 z m 294.4609,0 h 7.03204 l 4.39273,1.76272 5.26936,4.39271 3.51603,6.14598 v 8.79476 l -0.86727,2.63939 -5.27872,6.14598 -7.03213,3.51609 h -7.9181 l -1.75334,-0.87669 -6.14599,-5.26935 -3.516,-7.03205 v -7.91813 l 1.75331,-3.51603 4.39264,-5.26934 z m -349.83139,5.2693 -1.76275,0.88613 -4.40209,5.26929 v 7.90874 l 0.88605,1.76271 5.27879,4.3927 7.03207,0.87664 2.62995,-1.75326 4.40209,-4.39271 v -8.79482 l -2.63933,-3.51604 -4.39271,-2.63938 z m 54.49384,0 -1.75331,0.88613 -5.27878,6.14598 0.87668,7.91813 2.6394,3.51602 4.39266,2.62995 7.9182,-0.87664 5.26928,-6.15541 v -7.03205 l -1.75327,-3.51603 -5.27878,-3.51608 z m 294.45149,0 -3.51604,1.76276 -3.51602,4.39266 -0.86727,5.27879 3.51604,7.03205 6.14598,2.62995 6.15541,-0.87664 4.39273,-3.51602 1.75333,-7.90874 -2.62995,-5.27873 -5.26934,-3.51608 z m -680.37645,36.46122 -15.32726,11.35878 -0.0851,18.1363 c 0,0 18.46085,26.22483 28.32619,38.90264 l 19.01302,0.73523 13.90388,-10.69892 0.0378,-20.24783 -27.40243,-36.80051 z m 73.94989,0 -15.32732,11.35878 -0.0851,18.1363 c 0,0 18.46082,26.22483 28.32627,38.90264 l 19.01299,0.73523 13.90387,-10.69892 0.0378,-20.24783 -27.40249,-36.80051 z m 74.10068,0 -15.32732,11.35878 -0.0757,18.1363 c 0,0 18.46077,26.22483 28.32628,38.90264 l 19.01293,0.73523 13.90395,-10.69892 0.0283,-20.24783 -27.39304,-36.80051 z m 73.79904,0 -15.32732,11.35878 -0.0757,18.1363 c 0,0 18.45138,26.22483 28.31682,38.90264 l 19.01302,0.73523 13.90387,-10.69892 0.0378,-20.24783 -27.40247,-36.80051 z M 2.8746068,295.91565 v 30.1644 H 32.200042 V 295.91558 Z M 881.66666,312.0535 h 18.46627 v 0.87668 h -18.46627 z m -361.25616,0.87668 h 91.41694 l 5.26936,1.76271 v 7.90874 l -0.88613,0.87663 -6.14597,2.63941 -18.45683,0.87664 h -49.22451 l -20.21954,-0.87664 -1.75332,-0.88609 z m 108.99709,0 h 94.04687 l 2.6394,1.76271 v 6.15543 l -2.6394,3.51601 -8.7948,2.62998 h -76.4667 l -7.91815,-0.87664 -1.75328,-1.75334 v -10.54808 z m 108.11104,0 h 94.0469 l 2.63934,0.88607 0.8767,1.75333 v 5.27874 l -1.75334,2.62994 -9.67144,3.51605 h -76.47615 l -8.78537,-1.76273 -0.87664,-2.62995 z m 108.11099,0 h 32.52101 v 13.18749 h -31.63492 l -1.7627,-2.63941 v -9.66201 z m 670.65778,0.88607 -377.0732,0.87664 v 0.87669 l 3.5064,4.39266 0.8861,5.26934 -2.6393,3.52548 -5.2785,2.63939 -3.5067,-0.88613 h -2.64 l 37.8004,37.79977 6.1458,5.27875 v -5.27875 l 2.6393,-4.39271 5.2785,-2.63939 4.3926,0.87668 3.5066,4.40211 0.8861,6.14597 -2.6395,3.51605 -5.2692,2.63938 -0.8766,2.62995 3.5066,4.40211 5.2787,-0.87664 7.9093,-2.63938 h 102.8413 l 1.7626,0.87667 9.662,14.94081 4.4026,8.79475 -18.4664,13.18755 -7.0321,1.75325 h -74.7044 l -4.4021,1.75335 -6.1551,6.15541 -0.8766,31.64428 h -4.3924 l -4.4022,-1.76268 -7.8999,-1.75333 v 21.97285 l 36.9143,25.48895 5.2786,2.63932 4.3832,-0.87663 c 30.4831,-5.50388 60.9867,-10.90311 91.417,-16.69413 l 5.2786,-2.64877 0.8765,-2.62995 -13.187,-3.51602 -43.0695,-10.54814 -8.7853,-3.51603 v -27.25166 l 0.8767,-2.63939 2.6393,-0.87665 h 33.3975 l 4.3927,-1.76269 8.7953,-9.66208 7.032,-9.67143 0.8766,-7.03206 71.197,-0.87663 0.8767,-0.8767 v -55.37991 l 2.6393,-7.9087 6.1553,-7.0321 5.2699,-2.63934 h 106.3573 l 3.516,0.88607 v 1.75327 l 12.3019,13.18754 h 2.6393 v -35.16039 l -0.8766,-0.87664 z m -593.30501,0.87664 -7.91811,7.03203 -4.39272,4.39275 -14.9408,14.06416 -2.63932,5.27872 v 14.93137 H 692.68682 l -16.70354,-0.86722 -5.26933,-2.63937 -21.0962,-12.31084 -12.31085,-6.14597 H 488.75676 l -7.03204,1.75331 -2.62996,2.63934 v 28.12832 l 0.87662,0.87664 h 10.54808 l 0.88609,-0.87664 v -28.12833 l 10.54812,0.87667 v 28.1283 h 10.54809 l 0.86725,-0.87664 v -27.25166 h 10.54809 v 28.1283 h 9.68088 l 0.86724,-0.87664 v -28.12833 h 10.5481 l 0.88608,29.00497 h 10.54811 v -29.00497 l 9.66202,0.87667 0.8861,27.25166 0.87667,0.87664 h 9.67145 l 0.87662,-13.18749 v -15.81748 l 9.67145,0.87667 0.87665,28.1283 h 9.67145 l 1.75332,-0.87664 v -28.12833 l 9.67146,0.87667 v 23.72618 l 0.87669,4.40212 28.12825,0.87661 2.63941,1.75336 14.06411,6.16484 14.06415,5.26929 h 91.4075 l 7.91813,2.62995 9.66201,1.76278 -0.87663,3.51602 -6.15543,3.516 -7.90875,-5.26933 -4.39265,-2.63935 -87.9009,-0.88612 -11.42473,-3.50659 -21.9729,-9.67144 H 479.97138 v 41.30636 l 0.88607,10.55752 2.62997,2.62997 h 9.67144 l 4.39272,-2.62997 4.40209,-4.40209 8.78537,-14.06416 h 178.43174 l 22.85892,8.78538 29.88161,11.43413 12.3014,5.27879 4.40215,3.5066 6.14597,9.6715 10.54809,20.21954 4.40217,10.54815 7.03205,-3.51612 7.8993,-5.26927 1.7627,-4.40216 1.75334,-57.13318 0.88606,-11.42476 1.76269,-2.6394 10.54816,-9.66203 10.54807,-6.15539 84.37546,-0.87672 7.90875,-0.88605 0.87661,-25.48889 1.76269,-1.75332 7.90877,-9.68089 8.79481,-8.78538 1.75324,-3.51601 H 1048.674 l 47.4704,0.88605 1.7536,0.8767 17.5803,17.57074 3.5158,1.76271 v 1.76277 l 27.2424,27.25157 7.032,6.14604 6.1648,6.15542 7.8998,8.78539 0.886,104.60443 5.2693,1.76269 10.5478,6.14598 v 13.18746 l -0.8768,1.75334 -54.5032,57.13323 h -13.1779 l -12.3009,0.87664 h -13.1977 l 0.8861,20.21959 0.8766,2.62995 7.0322,7.03205 h 7.9187 l 7.8989,-1.75331 40.4389,-14.06411 26.3656,-9.66206 25.4892,-9.6809 26.3751,-9.66202 35.1602,-13.18747 55.3802,-20.21014 7.0222,-3.51603 0.8862,-10.54809 0.8765,-0.87668 v -22.84948 l -8.7849,1.75324 -82.6321,16.69413 -10.5477,1.76271 -5.2692,-2.63932 -44.8322,-29.00498 -0.8767,-94.04689 -0.8766,-1.76269 -29.0144,-29.00498 -7.0319,-6.15543 -18.4476,-18.45682 -10.5479,-9.67143 -7.9179,-6.14599 -9.6628,-6.15543 z m 203.04381,0 -1.7532,2.6394 -0.8861,6.14597 2.6393,3.51605 v -2.62998 -5.27873 l 2.63,-0.88607 1.7632,-3.50664 z m -245.23618,10.53869 h 11.42471 l 7.9182,0.88609 v 0.87664 h -16.70359 z m 39.55298,1.76273 h 10.54816 v 0.88605 H 920.343 Z m 770.8604,5.26933 v 1.76277 l 1.7626,0.88606 0.886,2.62995 0.8766,18.46628 0.8768,0.87663 h 24.6124 l 6.1459,0.87664 0.886,1.76273 1.7627,10.5481 5.2692,4.38331 4.3926,-0.86727 V 335.7891 l -0.8767,-0.87663 -42.1921,-0.88606 -0.8768,-0.87669 z m -753.28021,2.64883 -9.67143,11.41533 -7.03205,8.79476 v 21.09624 l 145.03369,1.76277 14.0648,0.87661 2.6299,0.87664 4.4018,3.51607 10.5481,9.67146 6.1465,7.90869 v 132.7233 l -0.8671,27.25165 -5.2794,8.78531 -3.5161,7.03209 h 8.7955 l 15.8167,0.88609 5.2789,-1.76275 5.2692,-6.15543 15.8271,-15.81744 6.1458,-7.03206 6.1553,-6.15542 12.302,-13.17801 6.1553,-7.9182 0.8766,-5.26936 -3.5159,-1.7627 -13.188,-4.39272 -0.8671,-2.63932 V 403.4704 l -0.8861,-3.51601 -32.521,-32.53039 -7.0321,-6.14603 -26.3656,-26.36552 z m 804.26701,0.87663 v 29.00498 l 0.886,9.66203 0.8766,0.88605 6.1467,0.87664 138.0015,13.18751 2.6393,1.75327 79.983,87.9009 h 7.9182 l 2.6297,-0.8766 h 6.1554 l 26.375,-0.88615 0.8672,-0.8672 0.8861,-11.4342 10.5486,-115.14305 v -11.42476 l -0.8768,-0.8861 z m -330.4974,2.63942 -2.6299,1.75331 -4.4026,5.27872 -2.63,6.14599 v 27.25164 l -0.8861,31.64431 -72.0737,0.87668 -2.6393,8.79483 -7.0319,9.66201 -6.1466,7.03203 -5.2787,3.51605 h -30.7677 l -3.516,0.88605 -1.7533,1.75333 -0.8765,11.42478 v 8.78537 l 0.8765,0.88608 5.2693,2.62996 23.7358,6.15541 25.4891,7.03206 7.9083,3.52545 7.9181,1.75334 60.6398,-0.88606 0.8863,-2.62996 -6.1554,-1.76277 h -45.708 l -2.63,-0.87665 -12.3113,-11.42475 -2.6395,-4.40211 V 430.7126 l 0.8861,-0.87661 30.7583,-0.8767 3.5159,-4.4021 3.5162,-1.75326 h 12.3111 l 5.2693,4.40208 8.7946,0.8672 5.2693,4.40217 c 9.146,10.34658 10.267,20.87662 0.8861,31.6443 l -5.2788,7.03205 0.8766,1.75332 6.1561,-0.87663 c 5.0964,-2.63897 8.6959,-6.33384 10.5478,-11.42477 l 2.6392,-8.79482 1.7533,-10.53871 v -7.91811 l -0.8766,-7.03205 4.3924,-10.54814 4.4022,-8.78539 7.0319,-7.03204 3.5166,-5.2788 -16.7132,-1.75326 -15.8171,-3.51604 -2.6304,-4.39271 -0.8861,-7.03203 4.4026,-8.79484 2.6299,-0.87664 14.0636,-1.75331 20.2201,4.39272 26.3658,6.15535 h 6.1551 l 7.0318,-1.76269 26.3751,-8.78538 17.5711,-9.67145 v -3.52547 l -2.6399,-3.50658 -7.8993,-8.79481 -4.4021,-2.62995 z m 621.4424,0 -0.8765,0.86718 -1.7627,17.58963 -7.9086,86.13814 -2.6392,35.16041 1.7533,0.8766 h 5.2786 l 1.7533,-3.516 7.0319,-66.80469 5.2786,-52.73109 0.8767,-17.58018 z m -701.4254,28.9955 7.9085,0.88607 4.3927,2.63941 4.3932,4.39266 2.6395,6.14597 -0.8766,7.91818 -5.2789,7.90868 -7.0326,3.51605 h -7.032 l -2.6298,-0.87663 -6.1552,-5.2788 -3.516,-6.15542 v -9.66201 l 1.7627,-3.51602 3.5161,-4.39266 z m 87.901,2.64878 -6.1552,1.75334 -4.3927,2.62997 0.8672,4.40207 14.9498,6.15542 15.8272,2.63941 34.2743,2.62996 19.3329,0.87661 -0.8766,-3.50657 -5.2785,-3.51605 -11.415,-2.64883 -50.9878,-11.41533 z m -88.7872,1.75334 -4.3924,1.7627 -4.3926,5.26934 v 6.15542 l 0.8767,1.75331 5.2785,6.15544 7.0318,0.87664 3.516,-1.75333 4.3927,-5.27875 v -7.90873 l -0.8767,-1.75333 -5.2786,-4.4021 z m 599.4609,8.79481 h 23.7445 l 3.516,4.39265 10.5485,12.30139 3.5159,5.26937 -0.8861,37.79973 h -3.5159 l -4.3926,-1.76272 -2.6393,-4.38328 -4.3931,-5.27879 -7.0319,-8.7853 -7.9089,-8.79483 -7.0317,-8.79481 -11.4251,-11.42478 -0.8863,-6.14598 2.6396,-3.52547 z m -638.1276,5.26929 -95.8189,0.87667 -3.516,2.6394 -4.3839,4.39268 v 58.88649 l 2.63,1.76277 10.5486,2.63939 0.8861,-29.8816 5.2691,-6.16486 7.0319,-1.75333 78.2298,-0.87662 2.6393,-0.88606 14.9404,-8.78538 -0.8766,-5.26937 -10.5478,-16.70351 z m 249.6291,14.06417 -3.516,0.87663 -36.0463,7.03211 -21.973,7.03206 -21.9637,8.78539 -17.5799,10.55749 -0.886,4.38328 3.5161,14.95026 v 14.94072 l -0.8767,3.51609 -0.8766,7.90869 h -29.8911 l -0.8766,0.8767 -6.1559,1.7627 -0.8766,1.75333 h 55.3705 l 1.7626,-3.51603 3.5159,0.88607 2.6394,5.26926 4.3932,3.52548 17.5799,2.62995 21.973,2.63942 21.0965,0.87669 2.6394,0.88607 7.0319,9.662 7.9086,11.43422 11.4345,20.21007 12.3012,23.72619 3.5159,9.67145 4.3926,16.70355 -0.8765,1.75329 -12.3013,8.78537 -21.0965,13.19692 -19.343,11.42476 -3.516,3.50659 0.8766,4.40214 v 6.15543 l -2.6393,3.50659 v 4.40211 l 7.0326,6.15544 4.3926,0.87668 4.402,-3.51609 19.3332,-8.7854 14.941,-7.03203 16.7126,-8.79483 14.9317,-7.90871 12.3105,-7.90872 7.0326,-6.15541 6.1459,-12.31084 V 573.1074 l -1.7532,-1.76277 -14.0646,-3.50659 -3.5159,-4.39271 -11.4246,-29.00493 -7.9085,-14.95022 -14.0645,-22.84948 -6.1554,-7.90876 -6.1551,-7.03204 -10.5392,-10.54814 -4.4019,-8.78539 v -5.27873 l 9.6711,-9.67145 0.8773,-4.39272 -7.9092,-8.78538 -4.4022,-11.43414 -1.7532,-7.90874 -1.7627,-5.2788 -0.8766,-8.78537 z m -39.5623,29.8816 h 6.1552 l 3.5254,2.63939 2.6298,7.90869 -3.5159,5.26934 -5.2785,2.64885 -5.2693,-1.76279 -4.3932,-5.26935 v -5.27871 l 0.8766,-1.75334 z m 61.5353,20.21952 -5.2793,3.5161 -6.1459,7.03204 1.7627,4.39266 7.0326,7.90874 7.8991,9.67146 10.5479,12.30139 7.9179,10.54816 10.5487,21.09614 9.6617,21.09623 5.2788,14.06415 4.3924,2.6394 9.6722,0.87664 2.6297,-0.87664 -0.8766,-9.67143 -4.3926,-14.06418 -7.0327,-16.69413 -8.7852,-15.82686 -9.6712,-15.81743 -12.3113,-17.58021 -9.6617,-12.30139 -9.6712,-11.43414 z m -87.9009,48.33843 4.3926,10.54814 2.6392,14.0641 1.7627,2.6394 7.0224,0.87662 h 26.3751 l 11.4253,-0.87662 6.1553,-1.75334 6.1553,-3.51601 1.7531,-3.51604 -5.2691,-9.67144 -3.5159,-4.39264 -7.0326,-0.88616 -21.0958,-0.86719 -17.5805,-1.76277 z m -166.1214,14.95023 h 7.0326 l 2.63,2.62995 2.6393,5.27879 -0.8766,5.26929 -6.1553,4.40217 -7.0327,-0.88606 -3.516,-3.51611 -0.8767,-6.14597 1.7533,-3.51604 z m -104.6041,7.03206 h 6.1551 l 2.63,2.62995 2.6393,4.40218 -0.8766,6.14597 -5.2787,4.40209 -4.3925,0.87662 -3.5159,-1.7627 -3.5159,-5.26934 v -6.15542 l 0.8766,-1.75334 z m 340.1692,2.62995 -2.6393,2.6394 -8.7945,5.27879 -10.5486,2.62996 -35.1602,0.88605 v 1.75328 l 7.0318,8.79482 10.5487,22.84954 7.9178,18.45681 7.0319,19.3429 0.8767,12.30143 0.8767,1.76275 3.5253,-0.88614 16.6944,-10.54808 13.1872,-7.90873 12.3113,-7.03206 6.146,-5.26934 v -4.40211 l -3.5162,-13.17803 -7.0318,-14.06418 -15.8274,-30.76766 z m -230.2951,24.61225 -15.8178,5.27878 -2.6394,2.62996 v 98.44897 l 0.8766,0.8861 h 24.6125 l -3.516,-2.64884 -0.8766,-7.89925 v -96.69572 z m -25.489,8.79481 -10.5486,4.39274 -10.5479,4.39264 -0.8767,22.85894 v 66.80468 h 24.6124 v -87.90092 l -0.8861,-10.54808 z m -31.6443,12.3014 -21.0965,7.90874 -40.4389,14.9502 -14.0552,5.26934 -18.4658,7.03212 -10.5391,4.39265 -0.8767,43.95518 3.516,2.63937 h 27.2422 v -14.95024 l 0.8768,-0.87666 77.353,-0.87662 v -5.27879 l -0.8765,-0.87664 h -76.4765 l -0.8768,-34.28368 49.225,0.88605 27.2423,26.36553 1.7625,-1.75327 v -54.50329 z m 353.347,9.66202 h 6.1552 l 4.3933,4.40215 0.8767,6.15542 -1.754,3.50658 -4.3926,3.52546 h -5.2786 l -3.516,-1.76275 -2.6298,-4.39265 v -5.26935 l 1.7532,-3.51605 z m -498.3814,6.16486 4.402,0.86725 4.383,6.16481 0.8862,6.14604 -1.7534,2.63934 -5.2785,3.51608 h -5.269 l -2.6489,-1.75334 -3.5159,-7.03204 0.8861,-5.27879 2.6298,-2.63938 z m 76.4664,18.4474 -0.8673,0.88612 v 21.97284 l 1.7534,3.51602 67.6819,-0.87662 0.8861,-1.75334 -24.6219,-23.74502 z m -1.7534,40.43912 -0.8765,1.75333 0.8765,8.79477 0.8861,0.8861 h 71.1886 l 0.886,-0.8861 v -10.5481 z m -43.0686,12.31083 -0.8767,23.73562 0.8767,2.62996 10.5477,4.3927 h 181.0711 l 4.3926,-4.3927 -0.8765,-5.26935 -6.1554,-5.27875 -6.1551,-7.90875 -6.1458,-0.87662 -164.3777,-0.87668 -2.6297,-0.88606 -5.2692,-3.51605 z m 13.187,35.15095 v 1.76277 l 4.3934,14.06411 4.3926,28.12829 1.7627,3.516 h 109.8733 l 1.7626,-2.63934 h 3.5066 l 3.5261,0.87661 5.2692,-3.51601 18.4564,-6.15543 17.5805,-7.03203 v -4.39274 l -4.3924,-1.75331 -0.8861,-3.51601 6.1552,-9.67146 1.7531,-7.90869 -1.7531,-1.76277 h -44.8315 l -0.8774,1.76277 v 9.67144 l -1.7531,6.14596 -9.6715,10.54812 -1.7626,4.3927 h -57.1334 l -3.5064,-1.75334 -7.0318,-6.15541 -4.402,-5.26932 -3.5161,-17.58015 -1.7627,-1.76277 z" /><style
     type="text/css"
     id="style1">
	.st0{fill-opacity:0.251;stroke:#000000;stroke-width:17.8911;stroke-miterlimit:15.1181;}
</style></svg>
