<?xml version="1.0" encoding="UTF-8" standalone="no"?>
<svg
   version="1.1"
   id="svg2"
   width="512"
   height="512"
   viewBox="0 0 512 512"
   sodipodi:docname="Arrows.svg"
   inkscape:version="1.1.1 (3bf5ae0d25, 2021-09-20)"
   xmlns:inkscape="http://www.inkscape.org/namespaces/inkscape"
   xmlns:sodipodi="http://sodipodi.sourceforge.net/DTD/sodipodi-0.dtd"
   xmlns="http://www.w3.org/2000/svg"
   xmlns:svg="http://www.w3.org/2000/svg"
   xmlns:rdf="http://www.w3.org/1999/02/22-rdf-syntax-ns#"
   xmlns:cc="http://creativecommons.org/ns#"
   xmlns:dc="http://purl.org/dc/elements/1.1/">
  <metadata
     id="metadata8">
    <rdf:RDF>
      <cc:Work
         rdf:about="">
        <dc:format>image/svg+xml</dc:format>
        <dc:type
           rdf:resource="http://purl.org/dc/dcmitype/StillImage" />
      </cc:Work>
    </rdf:RDF>
  </metadata>
  <defs
     id="defs6" />
  <sodipodi:namedview
     pagecolor="#ffffff"
     bordercolor="#666666"
     borderopacity="1"
     objecttolerance="10"
     gridtolerance="10"
     guidetolerance="10"
     inkscape:pageopacity="0"
     inkscape:pageshadow="2"
     inkscape:window-width="1366"
     inkscape:window-height="697"
     id="namedview4"
     showgrid="false"
     inkscape:zoom="0.35355339"
     inkscape:cx="46.669048"
     inkscape:cy="165.46299"
     inkscape:window-x="-8"
     inkscape:window-y="-8"
     inkscape:window-maximized="1"
     inkscape:current-layer="layer1"
     inkscape:pagecheckerboard="true"
     inkscape:document-rotation="0"
     fit-margin-top="0"
     fit-margin-left="0"
     fit-margin-right="0"
     fit-margin-bottom="0">
    <inkscape:grid
       type="xygrid"
       id="grid821"
       originx="-648.25001"
       originy="149.53124" />
  </sodipodi:namedview>
  <g
     inkscape:groupmode="layer"
     id="layer1"
     inkscape:label="Layer"
     style="display:inline"
     transform="translate(-648.25001,149.53124)">
    <g
       id="g9779"
       transform="translate(-3.8749225e-5)">
      <g
         id="g866" />
      <g
         id="g996"
         transform="matrix(4.8436725,0,0,4.8436725,-2479.6607,601.99912)">
        <g
           id="g858"
           transform="matrix(0.6296875,0,0,0.6296875,648.25001,-150.16093)">
          <path
             style="fill:#f3d573;fill-opacity:1;stroke:none;stroke-width:1px;stroke-linecap:butt;stroke-linejoin:miter;stroke-opacity:1"
             d="M 18.380859,1 0,32.220002 68,151 H 92 L 160,32.220002 141,1 Z m 38.884766,3.7186908 4.158203,5.7580332 h 37.029297 l 3.759765,-5.7580332 h 37.66992 l 15.35547,27.5013112 -19.35351,33.441967 -6.23829,0.560656 -19.43554,33.111475 3.19922,6.39836 -23.433598,41.34762 H 70.380859 L 46.466797,105.73246 49.666016,99.3341 30.951172,66.222625 23.914062,65.661969 4.7988281,32.220002 19.914062,4.7186908 Z"
             id="path823"
             sodipodi:nodetypes="cccccccccccccccccccccccccc" />
          <path
             style="fill:#937f44;fill-opacity:0.75;stroke:#f3d573;stroke-width:1px;stroke-linecap:butt;stroke-linejoin:miter;stroke-opacity:1"
             d="M 54.099974,12.000002 H 24.039578 l -11.379752,20.22 16,26.95995 c 5.008728,-0.0028 7.032542,-0.05019 9.746112,4.522352 L 56.700315,94.52951 c 2.652744,5.397115 -2.060428,9.74345 -1.765901,10.27311 l 19.511245,35.0882 h 11.266132 l 19.534429,-35.0882 c -3.18618,-4.874251 -2.52837,-7.244767 -0.74495,-10.27311 l 19.36046,-32.87516 c 1.80974,-3.073033 5.59021,-2.548881 8.106,-3.006276 l 15.24052,-26.428072 -11.3666,-20.22 h -29.40177 c -0.41511,2.579544 -3.99417,6.287541 -7.135967,6.287541 H 60.137497 c -2.132701,0 -6.037523,-4.287541 -6.037523,-6.287541 z"
             id="path826"
             inkscape:connector-curvature="0"
             sodipodi:nodetypes="ccccscscccssccccssc" />
        </g>
        <path
           id="rect860"
           style="fill:#f3d573;stroke-width:0.258067;stroke-linecap:round;stroke-linejoin:round"
           d="m 696.76691,-130.41 h 4.1291 v 68.232258 h -4.1291 z"
           sodipodi:nodetypes="ccccc" />
        <path
           style="fill:#f3d573;fill-opacity:1;stroke:none;stroke-width:1.02398px;stroke-linecap:butt;stroke-linejoin:miter;stroke-opacity:1"
           d="m 677.36015,-130.41001 4.1291,1e-5 v 35.91 l -4.1291,-7.312 z"
           id="path879"
           sodipodi:nodetypes="ccccc" />
        <path
           style="display:inline;fill:#f3d573;fill-opacity:1;stroke:none;stroke-width:1.02398px;stroke-linecap:butt;stroke-linejoin:miter;stroke-opacity:1"
           d="m 719.88986,-130.41 h -4.1291 v 36.739999 l 4.1291,-6.671179 z"
           id="path879-5"
           sodipodi:nodetypes="ccccc" />
        <path
           style="display:inline;fill:#f3d573;fill-opacity:1;stroke:none;stroke-width:0.99994px;stroke-linecap:butt;stroke-linejoin:miter;stroke-opacity:1"
           d="m 714.97964,-116.04508 c -3.44978,5.50688 -3.27483,13.86956 0,19.373844 z"
           id="path862-5-0"
           sodipodi:nodetypes="ccc" />
      </g>
      <path
         style="display:inline;fill:#f3d573;fill-opacity:1;stroke:none;stroke-width:4.84338px;stroke-linecap:butt;stroke-linejoin:miter;stroke-opacity:1"
         d="m 1011.25,37.954381 c 8.9119,14.226027 12.8297,32.386732 12.139,50.283174 l -12.139,20.236795 z"
         id="path862-5-0-3"
         sodipodi:nodetypes="cccc" />
      <path
         d="m 891.46651,39.91476 c -16.70961,26.67353 -15.86221,67.17961 0,93.84056 z"
         style="display:inline;fill:#f3d573;fill-opacity:1;stroke:none;stroke-width:0.99994px;stroke-linecap:butt;stroke-linejoin:miter;stroke-opacity:1"
         id="path3020"
         sodipodi:nodetypes="ccc" />
      <path
         d="m 919.25001,39.91476 c 16.70961,26.67353 15.86221,67.17961 0,93.84056 z"
         style="display:inline;fill:#f3d573;fill-opacity:1;stroke:none;stroke-width:0.99994px;stroke-linecap:butt;stroke-linejoin:miter;stroke-opacity:1"
         id="path3949" />
      <path
         d="m 797.46651,39.91476 c -7.6316,12.182307 -11.60094,27.249977 -12.15021,42.566212 l 12.15021,20.336518 z"
         style="display:inline;fill:#f3d573;fill-opacity:1;stroke:none;stroke-width:0.99994px;stroke-linecap:butt;stroke-linejoin:miter;stroke-opacity:1"
         id="path7036"
         sodipodi:nodetypes="cccc" />
      <path
         d="m 825.25001,39.91476 c 16.70961,26.673535 15.86221,67.17961 0,93.84056 z"
         style="display:inline;fill:#f3d573;fill-opacity:1;stroke:none;stroke-width:0.99994px;stroke-linecap:butt;stroke-linejoin:miter;stroke-opacity:1"
         id="path7036-4" />
    </g>
  </g>
</svg>
